<mxfile host="app.diagrams.net" modified="2023-11-06T00:57:26.807Z" agent="Mozilla/5.0 (Windows NT 10.0; Win64; x64) AppleWebKit/537.36 (KHTML, like Gecko) Chrome/119.0.0.0 Safari/537.36" version="22.0.8" etag="Km2LLB_H_h57amT35UL3" type="github">
  <diagram name="第 1 页" id="G47-L9Yvv7RoMmp9E_X9">
    <mxGraphModel>
      <root>
        <mxCell id="0" />
        <mxCell id="1" parent="0" />
      </root>
    </mxGraphModel>
  </diagram>
</mxfile>
